<?xml version="1.0" encoding="UTF-8" standalone="no"?>
<svg
   xmlns:dc="http://purl.org/dc/elements/1.1/"
   xmlns:cc="http://creativecommons.org/ns#"
   xmlns:rdf="http://www.w3.org/1999/02/22-rdf-syntax-ns#"
   xmlns:svg="http://www.w3.org/2000/svg"
   xmlns="http://www.w3.org/2000/svg"
   xmlns:sodipodi="http://sodipodi.sourceforge.net/DTD/sodipodi-0.dtd"
   xmlns:inkscape="http://www.inkscape.org/namespaces/inkscape"
   width="335.53302"
   height="137.59903"
   viewBox="0 0 268.42661 110.07914"
   id="svg3004"
   version="1.1"
   inkscape:version="0.48.5 r10040"
   sodipodi:docname="baasket.svg">
  <metadata
     id="metadata3011">
    <rdf:RDF>
      <cc:Work
         rdf:about="">
        <dc:format>image/svg+xml</dc:format>
        <dc:type
           rdf:resource="http://purl.org/dc/dcmitype/StillImage" />
        <dc:title></dc:title>
      </cc:Work>
    </rdf:RDF>
  </metadata>
  <defs
     id="defs3009" />
  <sodipodi:namedview
     pagecolor="#ffffff"
     bordercolor="#666666"
     borderopacity="1"
     objecttolerance="10"
     gridtolerance="10"
     guidetolerance="10"
     inkscape:pageopacity="0"
     inkscape:pageshadow="2"
     inkscape:window-width="1536"
     inkscape:window-height="803"
     id="namedview3007"
     showgrid="false"
     inkscape:zoom="1.3947082"
     inkscape:cx="116.55262"
     inkscape:cy="75.142226"
     inkscape:window-x="-8"
     inkscape:window-y="-8"
     inkscape:window-maximized="1"
     inkscape:current-layer="svg3004"
     fit-margin-top="0"
     fit-margin-left="0"
     fit-margin-right="0"
     fit-margin-bottom="0" />
  <path
     style="fill:#feffff;stroke:none;stroke-width:1;fill-opacity:1;fill-rule:evenodd"
     d="m 240.77376,0.71202975 c 11.13,-1.72999995 8.48,7.49000005 8.17,14.29000025 9.07,-4.63 20.17,-6.3700002 18.88,8 -0.14,1.63 -0.45,2.48 -0.88,4 -12.44,-6.94 -6.06,-3.5 -17.91,-7 -1.44,5.56 -2.39,27.17 0,31.99 1.46,2.68 3.6,4.22 5.91,6.01 -5.5,6.12 -15.7,7.4 -18.43,-2 -2.12,-7.3 1.36,-25.92 2.43,-34 -7.25,0 -18.6,2.42 -18.86,-8 -0.06,-2.08 0.32,-3.08 0.86,-5.0000002 7.27,3.8900002 9.39,6.5800002 18,7.0000002 l -3,-14.0000002 z"
     id="path3087"
     inkscape:connector-curvature="0" />
  <path
     style="fill:#feffff;stroke:none;stroke-width:1.24999905000000000;fill-opacity:1"
     d="M 214.53125 7.71875 C 213.86744 7.708144 213.16602 7.725 212.4375 7.78125 C 209.5375 8.0062498 207.55 8.9125008 204.9375 10 C 211.525 23.68749 214.75 30.412511 214.9375 46.25 C 215.0125 53.699995 211.53125 73.150004 215.84375 78.375 C 219.01875 82.237497 226.575 81.25 231.1875 81.25 C 228.425 72.737506 227.2875 70.037494 229.9375 61.25 L 242.4375 87.5 C 191.06254 89.862498 101.43346 121.81615 42.90625 110.09375 C 30.747528 107.6725 25.664804 102.04723 15.84375 97.5 C 15.84375 103.73029 15.205639 112.45745 17.34375 118.15625 C 24.413769 137.0095 48.214751 136.96875 65.71875 136.96875 C 104.50407 136.96875 156.36416 120.88636 199.9375 108.875 C 212.57377 105.39871 235.02501 95.9375 243.6875 95.75 C 248.9875 95.6375 257.95 105.88125 263.6875 109.28125 C 277.13749 117.25624 284.71251 117.675 299.9375 117.5 C 309.54999 117.3875 327.6875 114.28749 327.125 101.25 C 326.8125 94.175005 319.45 90.737499 313.6875 88.75 C 297.67501 83.250004 285.29999 85.1125 268.6875 85 C 249.46251 84.875 254.74999 67.012493 237.4375 57.5 C 243.55 51.875004 262.60624 36.968746 244.90625 31.46875 L 237.4375 30 C 236.9125 40.637492 234.05 42.025007 229.9375 51.25 C 225.31172 39.661336 235.10928 8.0475359 214.53125 7.71875 z M 280.0625 91.0625 C 289.15856 91.084473 299.17969 91.718752 303.28125 95 C 305.40625 96.712499 305.4125 97.650002 306.1875 100 C 292.32501 104 275.92499 103.41249 266.1875 91.25 C 269.49687 91.25 274.60486 91.049316 280.0625 91.0625 z "
     transform="matrix(0.80000058,0,0,0.80000058,0,-8.1592017e-5)"
     id="path3083" />
  <path
     style="fill:#feffff;stroke:none;stroke-width:1.24999905000000000;fill-opacity:1"
     d="M 275.8125 30.21875 C 272.50542 30.26149 269.1289 31.13672 266.1875 32.78125 C 257.05001 37.881246 253.21875 48.737507 253.71875 58.75 C 254.29375 69.887492 261.12501 77.4125 272.4375 78 C 277.85 78.2875 289.825 76.249995 289.25 69 C 288.4875 58.975007 278.31875 69.2375 274.96875 69 C 269.79375 69.1875 268.2 62.712497 267.4375 58.75 C 279.41249 61.649998 292.5625 57.074989 290.9375 42.5 C 289.99219 34.043756 283.08808 30.124722 275.8125 30.21875 z M 277.4375 41.25 C 277.15 49.562494 275.61249 51.612502 267.4375 53.75 C 269.725 47.200005 270.33751 43.462498 277.4375 41.25 z "
     transform="matrix(0.80000058,0,0,0.80000058,0,-8.1592017e-5)"
     id="path3081" />
  <path
     style="fill:#feffff;stroke:none;stroke-width:1;fill-opacity:1;fill-rule:evenodd"
     d="m 151.28376,39.00203 c 1.25,3.97 9.65,5.56 13.13,9.27 7.73,8.24 0.5,18.13 -14.47,17.71 -14,-0.38 -11.71,-10.82 -7.77,-13.32 3.6,-2.16 9.4,3.48 10.15,0 0.54,-2.61 -4.57,-5.63 -6.16,-7.17 -5.22,-5.1 -4.47,-12.32 1.82,-16.13 4.46,-2.69 12.73,-3.7 16.36,0.92 4.18,5.3 -1.05,11.23 -9.4,11.72 l 1,-7 c -1.96,0.43 -5.6,1.03 -4.66,4 z"
     id="path3079"
     inkscape:connector-curvature="0" />
  <path
     style="fill:#feffff;stroke:none;stroke-width:1.24999905000000000;fill-opacity:1"
     d="M 149.34375 38.15625 C 146.32453 38.22038 142.80117 39.651956 138.84375 43.78125 C 131.61876 51.381245 127.43125 70.112507 131.03125 80 C 135.70625 92.874991 148.2 90.012491 154.9375 77.5 C 159.775 91.07499 160.91251 89.124998 173.6875 86.25 C 171.425 80.087504 168.1 75.537495 167.8125 68.75 L 167.8125 48.90625 C 166.925 44.568753 163.53125 45.606249 160.40625 43.78125 C 159.01992 42.928126 155.10771 38.03382 149.34375 38.15625 z M 153.6875 50 C 153.6875 61.437492 155.87499 69.275006 146.1875 77.5 C 143.625 68.462507 146.65001 56.324995 153.6875 50 z "
     transform="matrix(0.80000058,0,0,0.80000058,0,-8.1592017e-5)"
     id="path3077" />
  <path
     style="fill:#feffff;stroke:none;stroke-width:1.24999905000000000;fill-opacity:1"
     d="M 59.0625 9.03125 C 30.535172 8.6059178 -0.83769421 42.752168 0.6875 69.4375 C 1.0874997 76.274995 4.8500051 81.668751 11.875 82.90625 C 15.674998 83.58125 20.137501 83.356247 21.8125 79.28125 C 25.124998 71.193756 14.374999 71.774994 12.8125 63.1875 C 10.200001 48.76251 29.600009 34.806248 41.875 31.84375 C 45.724997 30.881251 53.037503 29.856251 56.5625 31.84375 C 60.374997 33.981248 58.687498 36.850002 56.5625 39.4375 C 52.250003 44.524996 45.649995 48.687501 39.375 50.6875 C 39.3625 48.325002 39.706249 43.462499 38.15625 41.625 C 35.056252 37.987503 27.462499 42.175002 25.625 45.125 C 24.162501 47.487498 25.625 58.187503 25.625 61.9375 C 25.6375 69.837494 25.431251 87.362505 27.40625 94.4375 C 30.656248 106.07499 45.225007 104.89375 54.375 102.21875 C 69.562489 97.781253 80.818751 83.962489 81.78125 68.1875 C 82.15625 61.900005 80.631246 55.656247 75.40625 51.65625 C 71.568753 48.706252 66.512497 47.824999 61.875 46.9375 C 67.712496 43.837502 73.631253 40.212496 77.21875 34.4375 C 82.556246 25.850006 79.249993 14.293748 69.375 10.84375 C 66.024026 9.670704 62.565856 9.0834838 59.0625 9.03125 z M 50.90625 55.6875 C 55.006247 55.621875 58.956252 56.281252 61.5 58.75 C 71.274993 68.237493 53.799993 85.293751 44.4375 87.34375 C 37.525005 88.868749 38.15 81.549997 38.125 76.9375 L 39.375 56.9375 C 42.543748 56.51875 46.806253 55.753125 50.90625 55.6875 z "
     id="path3085"
     transform="matrix(0.80000058,0,0,0.80000058,0,-8.1592017e-5)" />
  <path
     style="fill:#feffff;stroke:none;stroke-width:1.24999905000000000;fill-opacity:1"
     d="M 105.6875 44.8125 C 102.66828 44.87663 99.113669 46.339456 95.15625 50.46875 C 87.931255 58.068745 83.743753 76.768757 87.34375 86.65625 C 92.018747 99.531241 104.5125 96.668741 111.25 84.15625 C 116.0875 97.73124 117.22501 95.781249 130 92.90625 C 127.7375 86.743756 124.44375 82.193745 124.15625 75.40625 L 124.15625 55.59375 C 123.26875 51.256253 119.84375 52.293749 116.71875 50.46875 C 115.33242 49.615626 111.45146 44.69007 105.6875 44.8125 z M 110 56.65625 C 110 68.093743 112.18749 75.931256 102.5 84.15625 C 99.937502 75.118755 102.96251 62.981247 110 56.65625 z "
     transform="matrix(0.80000058,0,0,0.80000058,0,-8.1592017e-5)"
     id="path3077-4" />
</svg>
